<?xml version="1.0" standalone="no"?>
<!DOCTYPE svg PUBLIC "-//W3C//DTD SVG 20010904//EN"
 "http://www.w3.org/TR/2001/REC-SVG-20010904/DTD/svg10.dtd">
<svg version="1.0" xmlns="http://www.w3.org/2000/svg"
 width="399.000000pt" height="399.000000pt" viewBox="0 0 399.000000 399.000000"
 preserveAspectRatio="xMidYMid meet">

<g transform="translate(0.000000,399.000000) scale(0.100000,-0.100000)"
fill="#000000" stroke="none">
<path d="M1795 3960 c-375 -43 -725 -183 -1020 -409 -85 -65 -247 -223 -318
-311 -507 -628 -585 -1492 -199 -2194 219 -400 577 -718 992 -882 983 -388
2084 43 2531 991 303 643 235 1405 -178 1982 -276 386 -689 666 -1143 775
-197 47 -487 68 -665 48z m430 -211 c492 -60 968 -358 1246 -779 296 -448 374
-1021 208 -1522 -105 -316 -296 -598 -544 -806 -358 -300 -835 -453 -1285
-412 -769 69 -1388 593 -1579 1335 -71 273 -68 597 6 880 150 573 588 1040
1154 1228 255 85 514 110 794 76z"/>
<path d="M1923 3316 l-28 -24 -3 -668 -2 -668 497 -498 498 -498 43 0 c81 0
126 76 88 148 -8 15 -220 232 -470 482 l-456 454 0 619 0 619 -29 29 c-39 38
-97 40 -138 5z"/>
</g>
</svg>
